<svg id="SvgjsSvg1001" width="288" height="288" xmlns="http://www.w3.org/2000/svg" version="1.1" xmlns:xlink="http://www.w3.org/1999/xlink" xmlns:svgjs="http://svgjs.com/svgjs"><defs id="SvgjsDefs1002"></defs><g id="SvgjsG1008" transform="matrix(1,0,0,1,0,0)"><svg xmlns="http://www.w3.org/2000/svg" viewBox="0 0 36 36" width="288" height="288"><g transform="translate(718 -1334.362)" fill="#000000" class="color000 svgShape"><rect width="36" height="36" x="-718" y="1334.362" fill="#a3a3a3" rx="6" ry="6" class="colorf8b84e svgShape"></rect><g opacity=".94" transform="translate(-715.009 316)" fill="#000000" class="color000 svgShape"><rect style="isolation:auto;mix-blend-mode:normal" width="5" height="21" x="-1032.362" y="-26" color="#000" opacity=".15" overflow="visible" rx="1" ry="1" transform="matrix(0 -1 -1 0 0 0)" fill="#000000" class="color000 svgShape"></rect><path d="M29.035 1049.328a2.03 2.03 0 0 1-2.034 2.034H2.034A2.03 2.03 0 0 1 0 1049.328z" color="#000" opacity=".15" overflow="visible" style="isolation:auto;mix-blend-mode:normal" fill="#000000" class="color000 svgShape"></path><path style="isolation:auto;mix-blend-mode:normal" d="M3 1034.362c-.554 0-1 .446-1 1v14h25v-14c0-.554-.446-1-1-1H3z" color="#000" opacity=".15" overflow="visible" fill="#000000" class="color000 svgShape"></path><path style="isolation:auto;mix-blend-mode:normal" d="M4.018 1034.362c-.554 0-1 .446-1 1v5.027H3v8.94H1c0 1.127.906 2.033 2.033 2.033h23.95a2.03 2.03 0 0 0 2.035-2.033H27v-.879c.003-.03.018-.057.018-.088v-13c0-.554-.446-1-1-1h-22z" color="#000" opacity=".15" overflow="visible" fill="#000000" class="color000 svgShape"></path><path style="isolation:auto;mix-blend-mode:normal" fill="#404040" d="M4 1034.362c-.554 0-1 .446-1 1v14h25v-14c0-.554-.446-1-1-1H4z" color="#000" overflow="visible" class="color2b4255 svgShape"></path><path fill="#a3a3a3" color="#000" overflow="visible" style="isolation:auto;mix-blend-mode:normal" d="M4 1035.516h22.962v12.846H4z" class="colorf8b84e svgShape"></path><path d="M13 1037.362v3.092c-.581.207-1 .756-1 1.408a1.5 1.5 0 0 0-1.03.512 1.748 1.748 0 0 0-1.803.992c-.055 0-.11-.01-.167-.01a2 2 0 0 0-2 2 3 3 0 1 0 0 6h15a3 3 0 1 0 0-6 2 2 0 0 0-2-2c-.056 0-.112 0-.168.01a1.75 1.75 0 0 0-1.582-1.008c-.074 0-.148.01-.22.016a1.5 1.5 0 0 0-1.03-.512c0-.652-.419-1.201-1-1.408v-3.092h-3z" opacity=".15" fill="#000000" class="color000 svgShape"></path><path fill="#ffffff" d="M14 1037.362v3.092c-.581.206-1 .756-1 1.408v.004a1.5 1.5 0 0 0-1.03.512 1.75 1.75 0 0 0-1.803.992A2 2 0 0 0 8 1045.362a3 3 0 0 0 .001 6h15a3 3 0 0 0 0-6 2 2 0 0 0-2.168-1.992 1.75 1.75 0 0 0-1.803-.992 1.5 1.5 0 0 0-1.029-.512v-.004c0-.652-.419-1.202-1-1.408v-3.092h-3Z" class="colorfff svgShape"></path><path style="isolation:auto;mix-blend-mode:normal" fill="#6a6a6a" d="M30.018 1049.328a2.03 2.03 0 0 1-2.034 2.034H3.017a2.03 2.03 0 0 1-2.034-2.034z" color="#000" overflow="visible" class="color576d7e svgShape"></path><path style="isolation:auto;mix-blend-mode:normal" fill="#d1d1d1" d="M18.663 1049.328c0 .516-.415.931-.93.931h-3.447a.929.929 0 0 1-.93-.93" color="#000" overflow="visible" class="colorcad1d8 svgShape"></path><rect width="5" height="21" x="-1031.362" y="-26" fill="#999999" color="#000" style="isolation:auto;mix-blend-mode:normal" overflow="visible" rx="1" ry="1" transform="matrix(0 -1 -1 0 0 0)" class="colorf05542 svgShape"></rect><path fill="none" stroke="#838383" d="M24.5 1031.362v-1m-2 1v-2m-2 2v-1m-2 1v-2m-2 2v-1m-2 1v-2m-2 2v-1m-2 1v-2m-2 2v-1m-2 1v-2" class="colorStroke34485c svgStroke"></path><path fill="#a2a2a2" color="#000" overflow="visible" transform="scale(-1 1)" style="isolation:auto;mix-blend-mode:normal" d="M-26 1027.362h21v1h-21z" class="colorf17f53 svgShape"></path><path fill="none" stroke="#6a6a6a" d="M8.5 1033.362v4m-2-4v3m2 2v1m-2-2v1M22.5 1033.363v4m2-4v3m-2 2v1m2-2v1" class="colorStroke576d7e svgStroke"></path><path d="M14.125 1038.362a1.123 1.123 0 0 1-1.125-1.125v-12.875l1.5-3 1.5 3v12.875c0 .623-.502 1.125-1.125 1.125z" color="#000" opacity=".15" overflow="visible" style="isolation:auto;mix-blend-mode:normal" fill="#000000" class="color000 svgShape"></path><path style="isolation:auto;mix-blend-mode:normal" fill="#9b9b9b" d="M-17-1036.362h3v12h-3z" color="#000" overflow="visible" transform="scale(-1)" class="color4bbfeb svgShape"></path><path style="isolation:auto;mix-blend-mode:normal" fill="#ebebeb" d="M17 1024.362h-3l1.5-3zm0 11.75v1.125c0 .623-.502 1.125-1.125 1.125h-.75a1.123 1.123 0 0 1-1.125-1.125v-1.125z" color="#000" overflow="visible" class="colore9eded svgShape"></path><path style="isolation:auto;mix-blend-mode:normal" fill="#484848" d="m15.875 1022.112-.375-.75-.375.75h.75z" color="#000" overflow="visible" class="color34485c svgShape"></path><path fill="#484848" color="#000" overflow="visible" transform="scale(-1)" style="isolation:auto;mix-blend-mode:normal" d="M-17-1036.362h3v.75h-3z" class="color34485c svgShape"></path><path style="isolation:auto;mix-blend-mode:normal" fill="#404040" d="M3 1048.362v1h25v-1z" color="#000" overflow="visible" class="color2b4255 svgShape"></path><path fill="none" stroke="#000000" d="M7.5 1033.362v4m-2-4v3m2 2v1m-2-2v1M21.5 1033.363v4m2-4v3m-2 2v1m2-2v1" opacity=".15" class="colorStroke000 svgStroke"></path></g></g></svg></g></svg>